<?xml version="1.0" encoding="utf-8"?>
<!-- Generator: Adobe Illustrator 28.1.0, SVG Export Plug-In . SVG Version: 6.00 Build 0)  -->
<svg version="1.1" id="Layer_1" xmlns="http://www.w3.org/2000/svg" xmlns:xlink="http://www.w3.org/1999/xlink" x="0px" y="0px"
	 viewBox="0 0 1500 304" style="enable-background:new 0 0 1500 304;" xml:space="preserve">
<style type="text/css">
	.st0{fill:#010202;}
</style>
<g id="Artboard">
	<g id="sine-macula-logo">
		<path id="Path" class="st0" d="M231,220.1c-1.4,23-10.1,42.6-26.7,58.3c-46.9,44.5-120.6,28.2-146.3-27.6
			c-10.6-23.2-11.2-47.3-1.6-71.3c13.8-34.6,28-69,41.4-103.8c3.7-9.5,6.1-19.7,7.2-29.8c1.5-13.7-5.8-23.6-17.4-30.1
			C75.8,9,63.2,7.4,51.1,15c-10.8,6.8-14.6,17.9-14.4,30c0.1,6.8-2,11.1-7.9,14c-2.1,1-3.9,2.7-5.9,4c-9.6,6.5-18.2,13.8-21,25.9
			L0,88.5c0.3-4.8-0.1-9.8,0.9-14.5c1.7-7.9,4.4-15.5,6.4-23.4c0.7-2.9,0.6-6,0.9-8.9c-0.7-0.3-1.4-0.5-2.1-0.8
			c-1.7,2.9-3.4,5.7-5.2,8.6c-1.2-6.2,0.8-14.2,5.6-21.4C23.7,1.7,70.3-8.6,97,8.1c13.6,8.5,19.7,21.3,21.2,36.8
			c1.4,14.6-2.5,28.4-6.2,42.3c-3,11.1-5.1,22.5-6.9,34.3c18.2-13.8,36.6-26.5,57.3-35.5c20.8-9,42.5-13.8,66.4-14.9
			c-2,0.9-2.9,1.5-3.9,1.7c-31.3,5.2-58.1,19.8-82.4,39.7c-10.6,8.7-21.5,17.1-32.6,25.2c-26.6,19.6-38,54.5-27.9,86
			c10.5,32.5,40.1,53.8,74.7,53.8c32.7,0,62.5-21.6,72.7-52.7C230,223.2,230.5,221.6,231,220.1L231,220.1z"/>
		<path id="Path_00000020372702224734301320000003400796612026027175_" class="st0" d="M124.8,137.8c-23.1,27.1-24.4,53.6-3.5,73.2
			c18.8,17.7,47.5,17.6,66.3-0.1c16.6-15.6,23-47.3-1.6-71.1c23.4,7.3,41.9,42.3,37.9,71.7c-4.7,34-33.9,60.4-67.8,61.1
			c-35.3,0.8-65.7-23.5-72-57.5C78.2,182.6,96.3,148.2,124.8,137.8L124.8,137.8z"/>
		<path id="Path_00000043453651896462934420000008132813911808143039_" class="st0" d="M199.3,87.7c-14.8,6.5-29.3,13.3-41.7,23.9
			c-4.7,4-9.9,4.5-15.5,4.9C159.1,102.6,178.1,92.9,199.3,87.7L199.3,87.7z"/>
	</g>
	<g id="Sine-Macula" transform="translate(330.9409, 75.257)">
		<path id="Path_00000114783712976227877420000016950247095174760111_" class="st0" d="M57.1,149.8c27.3,0,47-15.8,47-38.7v-0.4
			c0-20.6-13.8-32.4-46.5-39.1c-33.6-6.9-41.3-16-41.3-31v-0.4c0-14.8,13.8-26.7,34.6-26.7c15.6,0,28.9,4.5,42.3,16l6.7-8.3
			C85.4,9.7,71.8,4,51.2,4C24.9,4,5.7,20.2,5.7,41.3v0.4c0,21.5,13.8,33,47.8,39.9c32.2,6.5,40.1,15.2,40.1,30.2v0.4
			c0,16.2-14.6,28.1-35.8,28.1c-20.8,0-35.2-6.7-50.8-21L0,127.1C17,142.3,34.4,149.8,57.1,149.8z"/>
		<path id="Shape" class="st0" d="M136.6,17.6H149V4h-12.3V17.6z M137.8,147.7h9.9V44.5h-9.9V147.7z"/>
		<path id="Path_00000000206565559001729230000013012202231466787498_" class="st0" d="M186.8,147.7h9.9V88
			c0-21.5,15.6-36.8,35.8-36.8c20.8,0,32.8,14,32.8,35.2v61.3h9.9V84.6c0-24.7-15.2-42.5-41.3-42.5c-18.8,0-30.4,9.5-37.2,21.7V44.5
			h-9.9V147.7z"/>
		<path id="Shape_00000069395547445669245180000017326511737784399542_" class="st0" d="M354.4,150.2c19.8,0,32.2-8.1,42.7-19.4
			l-6.9-6.1c-8.5,9.1-19.4,16.2-35.4,16.2c-20.2,0-38.7-15-40.5-40.7h85.6c0.2-1.6,0.2-2.2,0.2-4c0-30.6-18.4-54-47.4-54
			c-27.9,0-49,23.9-49,53.8v0.4C303.8,128.5,327.3,150.2,354.4,150.2z M314.3,91.3c1.8-22.9,17.6-40.1,38-40.1
			c23.7,0,35.6,19.2,37,40.1H314.3z"/>
		<polygon id="Path_00000046304953365857152550000006532202059048249269_" class="st0" points="492,147.7 502.1,147.7 502.1,24.7 
			558.2,106.3 559,106.3 615.1,24.7 615.1,147.7 625.6,147.7 625.6,6.1 615.7,6.1 558.8,89.9 501.9,6.1 492,6.1 		"/>
		<path id="Shape_00000018220112462032177100000002106320474294240936_" class="st0" d="M696.8,150.2c19.6,0,32.4-9.7,39.5-19.6
			v17.2h9.7V83.4c0-12.8-3.6-22.3-10.5-29.1c-7.5-7.5-18.6-11.3-32.6-11.3c-14.2,0-25.3,3.6-36.6,8.9l3.6,8.7
			c9.5-4.9,19.8-8.3,32.4-8.3c21.3,0,34,10.7,34,31.6v4.5c-9.9-2.6-19.8-4.5-34.2-4.5c-26.7,0-45.1,12.1-45.1,33.6v0.4
			C657,139.2,677.6,150.2,696.8,150.2z M697.4,140.9c-15.8,0-30-8.7-30-23.7v-0.4c0-14.4,12.1-24.1,34-24.1c14.8,0,26.3,2.4,35,4.7
			v11.7C736.5,127.9,718.5,140.9,697.4,140.9z"/>
		<path id="Path_00000141450775796264233070000002266036671832861117_" class="st0" d="M827.2,150.2c19,0,31.6-8.5,42.1-20.4
			l-6.9-6.1c-8.7,9.7-20,17.2-34.6,17.2c-23.7,0-42.5-19.8-42.5-44.7v-0.4c0-24.7,18.2-44.3,41.7-44.3c15.4,0,25.5,7.9,34.4,17
			l7.1-7.3c-9.7-10.1-21.9-19-41.3-19c-29.5,0-52.6,25.1-52.6,54v0.4C774.5,125.5,797.4,150.2,827.2,150.2z"/>
		<path id="Path_00000005229342184107930050000002654518589504375436_" class="st0" d="M936.4,150.2c18.8,0,30.4-9.5,37.2-21.7v19.2
			h9.9V44.5h-9.9v59.7c0,21.5-15.6,36.8-35.8,36.8c-20.8,0-32.8-14-32.8-35.2V44.5h-9.9v63.1C895.2,132.4,910.3,150.2,936.4,150.2z"
			/>
		<polygon id="Path_00000106114335771009358120000011062440449988878480_" class="st0" points="1022.7,147.7 1032.6,147.7 1032.6,0 
			1022.7,0 		"/>
		<path id="Shape_00000056416360646887694230000006164442350456250035_" class="st0" d="M1103,150.2c19.6,0,32.4-9.7,39.5-19.6v17.2
			h9.7V83.4c0-12.8-3.6-22.3-10.5-29.1c-7.5-7.5-18.6-11.3-32.6-11.3c-14.2,0-25.3,3.6-36.6,8.9l3.6,8.7c9.5-4.9,19.8-8.3,32.4-8.3
			c21.3,0,34,10.7,34,31.6v4.5c-9.9-2.6-19.8-4.5-34.2-4.5c-26.7,0-45.1,12.1-45.1,33.6v0.4C1063.1,139.2,1083.8,150.2,1103,150.2z
			 M1103.6,140.9c-15.8,0-30-8.7-30-23.7v-0.4c0-14.4,12.1-24.1,34-24.1c14.8,0,26.3,2.4,35,4.7v11.7
			C1142.7,127.9,1124.7,140.9,1103.6,140.9z"/>
	</g>
</g>
</svg>
