<?xml version="1.0" encoding="utf-8"?>
<!-- Generator: Adobe Illustrator 28.1.0, SVG Export Plug-In . SVG Version: 6.00 Build 0)  -->
<svg version="1.1" id="Layer_1" xmlns="http://www.w3.org/2000/svg" xmlns:xlink="http://www.w3.org/1999/xlink" x="0px" y="0px"
	 viewBox="0 0 231 304" style="enable-background:new 0 0 231 304;" xml:space="preserve">
<g id="Artboard">
	<g id="sine-macula-logo">
		<path id="Path" d="M231,220.1c-1.4,23-10.1,42.6-26.7,58.3c-46.9,44.5-120.6,28.2-146.3-27.6c-10.6-23.2-11.2-47.3-1.6-71.3
			c13.8-34.6,28-69,41.4-103.8c3.7-9.5,6.1-19.7,7.2-29.8c1.5-13.7-5.8-23.6-17.4-30.1C75.8,9,63.2,7.4,51.1,15
			c-10.8,6.8-14.6,17.9-14.4,30c0.1,6.8-2,11.1-7.9,14c-2.1,1-3.9,2.7-5.9,4c-9.6,6.5-18.2,13.8-21,25.9L0,88.5
			c0.3-4.8-0.1-9.8,0.9-14.5c1.7-7.9,4.4-15.5,6.4-23.4c0.7-2.9,0.6-6,0.9-8.9c-0.7-0.3-1.4-0.5-2.1-0.8c-1.7,2.9-3.4,5.7-5.2,8.6
			c-1.2-6.2,0.8-14.2,5.6-21.4C23.7,1.7,70.3-8.6,97,8.1c13.6,8.5,19.7,21.3,21.2,36.8c1.4,14.6-2.5,28.4-6.2,42.3
			c-3,11.1-5.1,22.5-6.9,34.3c18.2-13.8,36.6-26.5,57.3-35.5c20.8-9,42.5-13.8,66.4-14.9c-2,0.9-2.9,1.5-3.9,1.7
			c-31.3,5.2-58.1,19.8-82.4,39.7c-10.6,8.7-21.5,17.1-32.6,25.2c-26.6,19.6-38,54.5-27.9,86c10.5,32.5,40.1,53.8,74.7,53.8
			c32.7,0,62.5-21.6,72.7-52.7C230,223.2,230.5,221.6,231,220.1L231,220.1z"/>
		<path id="Path_00000160874079742766221010000006845437898729101458_" d="M124.8,137.8c-23.1,27.1-24.4,53.6-3.5,73.2
			c18.8,17.7,47.5,17.6,66.3-0.1c16.6-15.6,23-47.3-1.6-71.1c23.4,7.3,41.9,42.3,37.9,71.7c-4.7,34-33.9,60.4-67.8,61.1
			c-35.3,0.8-65.7-23.5-72-57.5C78.2,182.6,96.3,148.2,124.8,137.8L124.8,137.8z"/>
		<path id="Path_00000016776808389565375200000014027171541061275044_" d="M199.3,87.7c-14.8,6.5-29.3,13.3-41.7,23.9
			c-4.7,4-9.9,4.5-15.5,4.9C159.1,102.6,178.1,92.9,199.3,87.7L199.3,87.7z"/>
	</g>
</g>
</svg>
